# xmcd CD database file
#
# Track frame offsets:
#	150
#	54135
#	106905
#	148442
#	175320
#
# Disc length: 2655 seconds
#
# Revision: 0
# Processed by: cddbd v1.5.2PL0 Copyright (c) Steve Scherf et al.
# Submitted via: CDex 1.70beta2
#
DISCID=410a5d05
DTITLE=The Charles Lloyd Quartet - Dream Weaver
DYEAR=1966
DGENRE=Jazz
TTITLE0=Autumn Sequence
TTITLE1=Dream Weaver
TTITLE2=Bird Flight
TTITLE3=Love Skip
TTITLE4=Sombrero Sam
EXTD=YEAR: 1966
EXTT0=
EXTT1=
EXTT2=
EXTT3=
EXTT4=
PLAYORDER=
